<?xml version="1.0" encoding="UTF-8" standalone="no"?>
<svg width="254.706mm" height="53.6222mm"
 xmlns="http://www.w3.org/2000/svg" xmlns:xlink="http://www.w3.org/1999/xlink"  version="1.2" baseProfile="tiny">
<title>Qt SVG Document</title>
<desc>Generated with Qt</desc>
<defs>
</defs>
<g fill="none" stroke="black" stroke-width="1" fill-rule="evenodd" stroke-linecap="square" stroke-linejoin="bevel" >

<g fill="none" stroke="#000000" stroke-opacity="1" stroke-width="1" stroke-linecap="square" stroke-linejoin="bevel" transform="matrix(1,0,0,1,0,0)"
font-family="Ubuntu" font-size="11" font-weight="400" font-style="normal" 
>
</g>

<g fill="none" stroke="#000000" stroke-opacity="1" stroke-width="1" stroke-linecap="square" stroke-linejoin="bevel" transform="matrix(1,0,0,1,0,0)"
font-family="Ubuntu" font-size="11" font-weight="400" font-style="normal" 
>
</g>

<g fill="none" stroke="#000000" stroke-opacity="1" stroke-width="1" stroke-linecap="square" stroke-linejoin="bevel" transform="matrix(2,0,0,2,-0.0008,167)"
font-family="Ubuntu" font-size="11" font-weight="400" font-style="normal" 
>
</g>

<g fill="#ffffff" fill-opacity="1" stroke="none" transform="matrix(2,0,0,2,-0.0008,167)"
font-family="Ubuntu" font-size="11" font-weight="400" font-style="normal" 
>
<rect x="0.0004" y="-83.5" width="360.78" height="76"/>
</g>

<g fill="none" stroke="#000000" stroke-opacity="1" stroke-width="1" stroke-linecap="square" stroke-linejoin="bevel" transform="matrix(2,0,0,2,-0.0008,167)"
font-family="Ubuntu" font-size="11" font-weight="400" font-style="normal" 
>
</g>

<g fill="none" stroke="#000000" stroke-opacity="1" stroke-width="1" stroke-linecap="square" stroke-linejoin="bevel" transform="matrix(2,0,0,2,-0.0008,167)"
font-family="Ubuntu" font-size="11" font-weight="400" font-style="normal" 
>
</g>

<g fill="none" stroke="#000000" stroke-opacity="1" stroke-width="1" stroke-linecap="square" stroke-linejoin="bevel" transform="matrix(2,0,0,2,-0.0008,167)"
font-family="Ubuntu" font-size="11" font-weight="400" font-style="normal" 
>
</g>

<g fill="none" stroke="#000000" stroke-opacity="1" stroke-width="1" stroke-linecap="square" stroke-linejoin="bevel" transform="matrix(2,0,0,2,-0.0008,167)"
font-family="Ubuntu" font-size="11" font-weight="400" font-style="normal" 
>
</g>

<g fill="none" stroke="#000000" stroke-opacity="1" stroke-width="1" stroke-linecap="square" stroke-linejoin="round" transform="matrix(2,0,0,2,-0.0008,167)"
font-family="Ubuntu" font-size="11" font-weight="400" font-style="normal" 
>
<rect x="191.28" y="-83" width="169" height="75"/>
</g>

<g fill="none" stroke="#000000" stroke-opacity="1" stroke-width="1" stroke-linecap="square" stroke-linejoin="bevel" transform="matrix(2,0,0,2,-0.0008,167)"
font-family="Ubuntu" font-size="11" font-weight="400" font-style="normal" 
>
</g>

<g fill="none" stroke="#000000" stroke-opacity="1" stroke-width="1" stroke-linecap="square" stroke-linejoin="bevel" transform="matrix(2,0,0,2,518.512,10)"
font-family="Ubuntu" font-size="11" font-weight="400" font-style="normal" 
>
</g>

<g fill="none" stroke="#000000" stroke-opacity="1" stroke-width="1" stroke-linecap="square" stroke-linejoin="bevel" transform="matrix(2,0,0,2,518.512,10)"
font-family="sans" font-size="11" font-weight="100" font-style="normal" 
>
</g>

<g fill="#000000" fill-opacity="1" stroke="#000000" stroke-opacity="1" stroke-width="1" stroke-linecap="square" stroke-linejoin="round" transform="matrix(2,0,0,2,518.512,10)"
font-family="sans" font-size="11" font-weight="100" font-style="normal" 
>
<path vector-effect="none" fill-rule="nonzero" d="M2.96875,2.98438 L3.53125,2.98438 L0.734375,12.0156 L0.171875,12.0156 L2.96875,2.98438 M9.28125,6.29688 C9.46875,5.80729 9.76042,5.44271 10.1563,5.20313 C10.5417,4.96354 10.9948,4.84375 11.5156,4.84375 C12.0365,4.84375 12.4531,5.02604 12.7656,5.39063 C13.0885,5.75521 13.25,6.41667 13.25,7.375 L13.25,11 L12.7656,11 L12.7656,7.40625 C12.7656,6.57292 12.651,6.01042 12.4219,5.71875 C12.1927,5.42708 11.8854,5.28125 11.5,5.28125 C10.9479,5.28125 10.4635,5.44792 10.0469,5.78125 C9.57813,6.15625 9.34375,6.76042 9.34375,7.59375 L9.34375,11 L8.85938,11 L8.85938,7.40625 C8.85938,6.60417 8.7474,6.04948 8.52344,5.74219 C8.29948,5.4349 7.98958,5.28125 7.59375,5.28125 C7.04167,5.28125 6.55729,5.45313 6.14063,5.79688 C5.67188,6.16146 5.4375,6.76042 5.4375,7.59375 L5.4375,11 L4.95313,11 L4.95313,4.98438 L5.4375,4.98438 L5.4375,6.10938 C5.61458,5.71354 5.89063,5.40104 6.26563,5.17188 C6.63021,4.95313 7.08333,4.84375 7.625,4.84375 C7.97917,4.84375 8.31771,4.95833 8.64063,5.1875 C8.89063,5.375 9.10417,5.74479 9.28125,6.29688 M15.6406,4.98438 L16.1406,4.98438 L16.1406,11 L15.6406,11 L15.6406,4.98438 M15.6406,2.64063 L16.1406,2.64063 L16.1406,3.3125 L15.6406,3.3125 L15.6406,2.64063 M21.9688,5.40625 C21.8854,5.36458 21.776,5.33333 21.6406,5.3125 C21.5156,5.29167 21.3646,5.28125 21.1875,5.28125 C20.5729,5.28125 20.0677,5.50521 19.6719,5.95313 C19.349,6.31771 19.1875,6.94271 19.1875,7.82813 L19.1875,11 L18.7031,11 L18.7031,4.98438 L19.1875,4.98438 L19.1875,6.10938 C19.3542,5.78646 19.5833,5.51563 19.875,5.29688 C20.2708,4.99479 20.7396,4.84375 21.2813,4.84375 C21.4271,4.84375 21.5521,4.84896 21.6563,4.85938 C21.7604,4.85938 21.8646,4.86979 21.9688,4.89063 L21.9688,5.40625 M23.7344,3.28125 L23.7344,4.98438 L25.7656,4.98438 L25.7656,5.40625 L23.7344,5.40625 L23.7344,9.01563 C23.7344,9.47396 23.7917,9.79688 23.9063,9.98438 C24.1563,10.3802 24.5156,10.5781 24.9844,10.5781 L25.7656,10.5781 L25.7656,11 L25,11 C24.5104,11 24.0938,10.8568 23.75,10.5703 C23.4063,10.2839 23.2344,9.76563 23.2344,9.01563 L23.2344,5.40625 L22.5156,5.40625 L22.5156,4.98438 L23.2344,4.98438 L23.2344,3.28125 L23.7344,3.28125 M32.2188,7.75 L32.2188,8.0625 L27.6563,8.0625 C27.6563,9.02083 27.8438,9.69792 28.2188,10.0938 C28.6354,10.5208 29.25,10.7344 30.0625,10.7344 C30.2813,10.7344 30.5677,10.6875 30.9219,10.5938 C31.276,10.5 31.6302,10.3594 31.9844,10.1719 L31.9844,10.6875 C31.6302,10.8438 31.2682,10.9609 30.8984,11.0391 C30.5286,11.1172 30.2344,11.1563 30.0156,11.1563 C29.0885,11.1563 28.3906,10.9063 27.9219,10.4063 C27.4115,9.875 27.1563,9.09375 27.1563,8.0625 C27.1563,6.98958 27.3854,6.1875 27.8438,5.65625 C28.3229,5.11458 28.9896,4.84375 29.8438,4.84375 C30.625,4.84375 31.2188,5.10417 31.625,5.625 C32.0208,6.16667 32.2188,6.875 32.2188,7.75 M31.7188,7.64063 C31.7188,6.79688 31.526,6.18229 31.1406,5.79688 C30.8281,5.45313 30.3958,5.28125 29.8438,5.28125 C29.25,5.28125 28.75,5.45833 28.3438,5.8125 C27.9688,6.14583 27.7448,6.75521 27.6719,7.64063 L31.7188,7.64063"/>
</g>

<g fill="none" stroke="#000000" stroke-opacity="1" stroke-width="1" stroke-linecap="square" stroke-linejoin="bevel" transform="matrix(2,0,0,2,518.512,10)"
font-family="sans" font-size="11" font-weight="100" font-style="normal" 
>
</g>

<g fill="none" stroke="#000000" stroke-opacity="1" stroke-width="1" stroke-linecap="square" stroke-linejoin="bevel" transform="matrix(2,0,0,2,518.512,10)"
font-family="Ubuntu" font-size="11" font-weight="400" font-style="normal" 
>
</g>

<g fill="none" stroke="#000000" stroke-opacity="1" stroke-width="1" stroke-linecap="square" stroke-linejoin="bevel" transform="matrix(2,0,0,2,-0.0008,167)"
font-family="Ubuntu" font-size="11" font-weight="400" font-style="normal" 
>
</g>

<g fill="none" stroke="#000000" stroke-opacity="1" stroke-width="1" stroke-linecap="square" stroke-linejoin="bevel" transform="matrix(2,0,0,2,-0.0008,167)"
font-family="Ubuntu" font-size="11" font-weight="400" font-style="normal" 
>
</g>

<g fill="none" stroke="#000000" stroke-opacity="1" stroke-width="1" stroke-linecap="square" stroke-linejoin="bevel" transform="matrix(2,0,0,2,-0.0008,167)"
font-family="Ubuntu" font-size="11" font-weight="400" font-style="normal" 
>
</g>

<g fill="none" stroke="#000000" stroke-opacity="1" stroke-width="1" stroke-linecap="square" stroke-linejoin="round" transform="matrix(2,0,0,2,-0.0008,167)"
font-family="Ubuntu" font-size="11" font-weight="400" font-style="normal" 
>
<rect x="199.78" y="-51.5" width="152" height="35"/>
</g>

<g fill="none" stroke="#000000" stroke-opacity="1" stroke-width="1" stroke-linecap="square" stroke-linejoin="bevel" transform="matrix(2,0,0,2,-0.0008,167)"
font-family="Ubuntu" font-size="11" font-weight="400" font-style="normal" 
>
</g>

<g fill="none" stroke="#000000" stroke-opacity="1" stroke-width="1" stroke-linecap="square" stroke-linejoin="bevel" transform="matrix(2,0,0,2,446.762,85)"
font-family="Ubuntu" font-size="11" font-weight="400" font-style="normal" 
>
</g>

<g fill="none" stroke="#000000" stroke-opacity="1" stroke-width="1" stroke-linecap="square" stroke-linejoin="bevel" transform="matrix(2,0,0,2,446.762,85)"
font-family="sans" font-size="11" font-weight="100" font-style="normal" 
>
</g>

<g fill="#000000" fill-opacity="1" stroke="#000000" stroke-opacity="1" stroke-width="1" stroke-linecap="square" stroke-linejoin="round" transform="matrix(2,0,0,2,446.762,85)"
font-family="sans" font-size="11" font-weight="100" font-style="normal" 
>
<path vector-effect="none" fill-rule="nonzero" d="M2.96875,2.98438 L3.53125,2.98438 L0.734375,12.0156 L0.171875,12.0156 L2.96875,2.98438 M9.28125,6.29688 C9.46875,5.80729 9.76042,5.44271 10.1563,5.20313 C10.5417,4.96354 10.9948,4.84375 11.5156,4.84375 C12.0365,4.84375 12.4531,5.02604 12.7656,5.39063 C13.0885,5.75521 13.25,6.41667 13.25,7.375 L13.25,11 L12.7656,11 L12.7656,7.40625 C12.7656,6.57292 12.651,6.01042 12.4219,5.71875 C12.1927,5.42708 11.8854,5.28125 11.5,5.28125 C10.9479,5.28125 10.4635,5.44792 10.0469,5.78125 C9.57813,6.15625 9.34375,6.76042 9.34375,7.59375 L9.34375,11 L8.85938,11 L8.85938,7.40625 C8.85938,6.60417 8.7474,6.04948 8.52344,5.74219 C8.29948,5.4349 7.98958,5.28125 7.59375,5.28125 C7.04167,5.28125 6.55729,5.45313 6.14063,5.79688 C5.67188,6.16146 5.4375,6.76042 5.4375,7.59375 L5.4375,11 L4.95313,11 L4.95313,4.98438 L5.4375,4.98438 L5.4375,6.10938 C5.61458,5.71354 5.89063,5.40104 6.26563,5.17188 C6.63021,4.95313 7.08333,4.84375 7.625,4.84375 C7.97917,4.84375 8.31771,4.95833 8.64063,5.1875 C8.89063,5.375 9.10417,5.74479 9.28125,6.29688 M15.6406,4.98438 L16.1406,4.98438 L16.1406,11 L15.6406,11 L15.6406,4.98438 M15.6406,2.64063 L16.1406,2.64063 L16.1406,3.3125 L15.6406,3.3125 L15.6406,2.64063 M21.9688,5.40625 C21.8854,5.36458 21.776,5.33333 21.6406,5.3125 C21.5156,5.29167 21.3646,5.28125 21.1875,5.28125 C20.5729,5.28125 20.0677,5.50521 19.6719,5.95313 C19.349,6.31771 19.1875,6.94271 19.1875,7.82813 L19.1875,11 L18.7031,11 L18.7031,4.98438 L19.1875,4.98438 L19.1875,6.10938 C19.3542,5.78646 19.5833,5.51563 19.875,5.29688 C20.2708,4.99479 20.7396,4.84375 21.2813,4.84375 C21.4271,4.84375 21.5521,4.84896 21.6563,4.85938 C21.7604,4.85938 21.8646,4.86979 21.9688,4.89063 L21.9688,5.40625 M23.7344,3.28125 L23.7344,4.98438 L25.7656,4.98438 L25.7656,5.40625 L23.7344,5.40625 L23.7344,9.01563 C23.7344,9.47396 23.7917,9.79688 23.9063,9.98438 C24.1563,10.3802 24.5156,10.5781 24.9844,10.5781 L25.7656,10.5781 L25.7656,11 L25,11 C24.5104,11 24.0938,10.8568 23.75,10.5703 C23.4063,10.2839 23.2344,9.76563 23.2344,9.01563 L23.2344,5.40625 L22.5156,5.40625 L22.5156,4.98438 L23.2344,4.98438 L23.2344,3.28125 L23.7344,3.28125 M32.2188,7.75 L32.2188,8.0625 L27.6563,8.0625 C27.6563,9.02083 27.8438,9.69792 28.2188,10.0938 C28.6354,10.5208 29.25,10.7344 30.0625,10.7344 C30.2813,10.7344 30.5677,10.6875 30.9219,10.5938 C31.276,10.5 31.6302,10.3594 31.9844,10.1719 L31.9844,10.6875 C31.6302,10.8438 31.2682,10.9609 30.8984,11.0391 C30.5286,11.1172 30.2344,11.1563 30.0156,11.1563 C29.0885,11.1563 28.3906,10.9063 27.9219,10.4063 C27.4115,9.875 27.1563,9.09375 27.1563,8.0625 C27.1563,6.98958 27.3854,6.1875 27.8438,5.65625 C28.3229,5.11458 28.9896,4.84375 29.8438,4.84375 C30.625,4.84375 31.2188,5.10417 31.625,5.625 C32.0208,6.16667 32.2188,6.875 32.2188,7.75 M31.7188,7.64063 C31.7188,6.79688 31.526,6.18229 31.1406,5.79688 C30.8281,5.45313 30.3958,5.28125 29.8438,5.28125 C29.25,5.28125 28.75,5.45833 28.3438,5.8125 C27.9688,6.14583 27.7448,6.75521 27.6719,7.64063 L31.7188,7.64063 M36.0156,2.98438 L36.5781,2.98438 L33.7813,12.0156 L33.2188,12.0156 L36.0156,2.98438 M42,6.35938 L42,2.64063 L42.4688,2.64063 L42.4688,11 L42,11 L42,9.64063 C41.7708,10.1615 41.5208,10.5156 41.25,10.7031 C40.8542,11.0052 40.474,11.1563 40.1094,11.1563 C39.401,11.1563 38.8099,10.8672 38.3359,10.2891 C37.862,9.71094 37.625,8.94792 37.625,8 C37.625,7.05208 37.862,6.28906 38.3359,5.71094 C38.8099,5.13281 39.401,4.84375 40.1094,4.84375 C40.474,4.84375 40.8542,4.98958 41.25,5.28125 C41.5208,5.47917 41.7708,5.83854 42,6.35938 M38.7656,5.90625 C38.349,6.32292 38.1406,7.02083 38.1406,8 C38.1406,8.97917 38.349,9.67708 38.7656,10.0938 C39.1823,10.5104 39.6198,10.7188 40.0781,10.7188 C40.526,10.7188 40.9583,10.5104 41.375,10.0938 C41.7813,9.67708 41.9844,8.97917 41.9844,8 C41.9844,7.02083 41.7813,6.32292 41.375,5.90625 C40.9583,5.48958 40.526,5.28125 40.0781,5.28125 C39.6198,5.28125 39.1823,5.48958 38.7656,5.90625 M44.9531,4.98438 L45.4531,4.98438 L45.4531,11 L44.9531,11 L44.9531,4.98438 M44.9531,2.64063 L45.4531,2.64063 L45.4531,3.3125 L44.9531,3.3125 L44.9531,2.64063 M51.4219,5.15625 L51.4219,5.70313 C51.0677,5.50521 50.849,5.39583 50.7656,5.375 C50.5156,5.32292 50.2031,5.29167 49.8281,5.28125 C49.2656,5.28125 48.8229,5.39063 48.5,5.60938 C48.25,5.79688 48.125,6.11458 48.125,6.5625 C48.125,6.875 48.2448,7.11458 48.4844,7.28125 C48.724,7.46875 49.0729,7.61458 49.5313,7.71875 L49.875,7.78125 C50.4479,7.90625 50.8802,8.08333 51.1719,8.3125 C51.5156,8.58333 51.6927,8.92708 51.7031,9.34375 C51.7031,9.90625 51.5365,10.349 51.2031,10.6719 C50.849,10.9948 50.2708,11.1563 49.4688,11.1563 C49.0313,11.1563 48.6979,11.125 48.4688,11.0625 C48.1875,10.9896 47.8958,10.8958 47.5938,10.7813 L47.5938,10.1563 C48.0313,10.4063 48.3125,10.5521 48.4375,10.5938 C48.7917,10.6875 49.1458,10.7344 49.5,10.7344 C50.0729,10.7344 50.5,10.6146 50.7813,10.375 C51.0625,10.125 51.2031,9.80729 51.2031,9.42188 C51.2031,9.08854 51.1094,8.84896 50.9219,8.70313 C50.651,8.48438 50.224,8.30729 49.6406,8.17188 L49.2969,8.09375 C48.7865,7.96875 48.401,7.80208 48.1406,7.59375 C47.8073,7.32292 47.6406,6.99479 47.6406,6.60938 C47.6406,5.98438 47.8411,5.53385 48.2422,5.25781 C48.6432,4.98177 49.1354,4.84375 49.7188,4.84375 C50.2188,4.84375 50.5625,4.86979 50.75,4.92188 C50.9792,4.98438 51.2031,5.0625 51.4219,5.15625 M54.25,3.28125 L54.25,4.98438 L56.2813,4.98438 L56.2813,5.40625 L54.25,5.40625 L54.25,9.01563 C54.25,9.47396 54.3073,9.79688 54.4219,9.98438 C54.6719,10.3802 55.0313,10.5781 55.5,10.5781 L56.2813,10.5781 L56.2813,11 L55.5156,11 C55.026,11 54.6094,10.8568 54.2656,10.5703 C53.9219,10.2839 53.75,9.76563 53.75,9.01563 L53.75,5.40625 L53.0313,5.40625 L53.0313,4.98438 L53.75,4.98438 L53.75,3.28125 L54.25,3.28125 M60.4531,7.60938 C59.651,7.60938 59.0755,7.75 58.7266,8.03125 C58.3776,8.3125 58.2031,8.72396 58.2031,9.26563 C58.2031,9.79688 58.349,10.1745 58.6406,10.3984 C58.9323,10.6224 59.276,10.7344 59.6719,10.7344 C60.4219,10.7344 60.9635,10.4167 61.2969,9.78125 C61.6302,9.13542 61.7969,8.53125 61.7969,7.96875 L61.7969,7.60938 L60.4531,7.60938 M62.2969,7.5625 L62.2969,11 L61.7969,11 L61.7969,9.35938 C61.526,10.1615 61.1615,10.6719 60.7031,10.8906 C60.349,11.0677 59.9896,11.1563 59.625,11.1563 C59.0313,11.1563 58.5625,10.9948 58.2188,10.6719 C57.875,10.349 57.7031,9.8776 57.7031,9.25781 C57.7031,8.63802 57.9271,8.14063 58.375,7.76563 C58.8229,7.39063 59.5521,7.20313 60.5625,7.20313 L61.7969,7.20313 L61.7969,7.10938 C61.7969,6.57813 61.6406,6.14063 61.3281,5.79688 C61.0365,5.45313 60.5417,5.28125 59.8438,5.28125 C59.5,5.28125 59.151,5.34375 58.7969,5.46875 C58.5677,5.55208 58.2656,5.71875 57.8906,5.96875 L57.8906,5.4375 C58.2135,5.23958 58.5156,5.09896 58.7969,5.01563 C59.1927,4.90104 59.5729,4.84375 59.9375,4.84375 C60.6563,4.84375 61.2448,5.05729 61.7031,5.48438 C62.099,5.84896 62.2969,6.54167 62.2969,7.5625 M69.3281,7.375 L69.3281,11 L68.8281,11 L68.8281,7.40625 C68.8281,6.625 68.7031,6.07552 68.4531,5.75781 C68.2031,5.4401 67.8333,5.28125 67.3438,5.28125 C66.7708,5.28125 66.2865,5.45313 65.8906,5.79688 C65.474,6.14063 65.2656,6.73958 65.2656,7.59375 L65.2656,11 L64.7813,11 L64.7813,4.98438 L65.2656,4.98438 L65.2656,6.10938 C65.4427,5.74479 65.6771,5.46875 65.9688,5.28125 C66.3854,4.98958 66.849,4.84375 67.3594,4.84375 C67.9635,4.84375 68.4427,5.04688 68.7969,5.45313 C69.151,5.84896 69.3281,6.48958 69.3281,7.375 M75.8594,5.28125 L75.8594,5.79688 C75.5677,5.61979 75.3229,5.5 75.125,5.4375 C74.7917,5.33333 74.474,5.28125 74.1719,5.28125 C73.3073,5.28125 72.6875,5.5026 72.3125,5.94531 C71.9375,6.38802 71.75,7.07292 71.75,8 C71.75,8.9375 71.9375,9.6276 72.3125,10.0703 C72.6875,10.513 73.3073,10.7344 74.1719,10.7344 C74.4635,10.7344 74.7448,10.6927 75.0156,10.6094 C75.3073,10.5365 75.5885,10.4219 75.8594,10.2656 L75.8594,10.7656 C75.5885,10.901 75.3073,11 75.0156,11.0625 C74.7135,11.125 74.4167,11.1563 74.125,11.1563 C73.25,11.1563 72.5521,10.9167 72.0313,10.4375 C71.5104,9.95833 71.25,9.14323 71.25,7.99219 C71.25,6.84115 71.5104,6.02604 72.0313,5.54688 C72.5521,5.07813 73.25,4.84375 74.125,4.84375 C74.4167,4.84375 74.724,4.88542 75.0469,4.96875 C75.3698,5.04167 75.6406,5.14583 75.8594,5.28125 M82.4844,7.75 L82.4844,8.0625 L77.9219,8.0625 C77.9219,9.02083 78.1094,9.69792 78.4844,10.0938 C78.901,10.5208 79.5156,10.7344 80.3281,10.7344 C80.5469,10.7344 80.8333,10.6875 81.1875,10.5938 C81.5417,10.5 81.8958,10.3594 82.25,10.1719 L82.25,10.6875 C81.8958,10.8438 81.5339,10.9609 81.1641,11.0391 C80.7943,11.1172 80.5,11.1563 80.2813,11.1563 C79.3542,11.1563 78.6563,10.9063 78.1875,10.4063 C77.6771,9.875 77.4219,9.09375 77.4219,8.0625 C77.4219,6.98958 77.651,6.1875 78.1094,5.65625 C78.5885,5.11458 79.2552,4.84375 80.1094,4.84375 C80.8906,4.84375 81.4844,5.10417 81.8906,5.625 C82.2865,6.16667 82.4844,6.875 82.4844,7.75 M81.9844,7.64063 C81.9844,6.79688 81.7917,6.18229 81.4063,5.79688 C81.0938,5.45313 80.6615,5.28125 80.1094,5.28125 C79.5156,5.28125 79.0156,5.45833 78.6094,5.8125 C78.2344,6.14583 78.0104,6.75521 77.9375,7.64063 L81.9844,7.64063 M86.2813,2.98438 L86.8438,2.98438 L84.0469,12.0156 L83.4844,12.0156 L86.2813,2.98438 M88.2656,2.64063 L88.75,2.64063 L88.75,11 L88.2656,11 L88.2656,2.64063 M96,7.75 L96,8.0625 L91.4375,8.0625 C91.4375,9.02083 91.625,9.69792 92,10.0938 C92.4167,10.5208 93.0313,10.7344 93.8438,10.7344 C94.0625,10.7344 94.349,10.6875 94.7031,10.5938 C95.0573,10.5 95.4115,10.3594 95.7656,10.1719 L95.7656,10.6875 C95.4115,10.8438 95.0495,10.9609 94.6797,11.0391 C94.3099,11.1172 94.0156,11.1563 93.7969,11.1563 C92.8698,11.1563 92.1719,10.9063 91.7031,10.4063 C91.1927,9.875 90.9375,9.09375 90.9375,8.0625 C90.9375,6.98958 91.1667,6.1875 91.625,5.65625 C92.1042,5.11458 92.7708,4.84375 93.625,4.84375 C94.4063,4.84375 95,5.10417 95.4063,5.625 C95.8021,6.16667 96,6.875 96,7.75 M95.5,7.64063 C95.5,6.79688 95.3073,6.18229 94.9219,5.79688 C94.6094,5.45313 94.1771,5.28125 93.625,5.28125 C93.0313,5.28125 92.5313,5.45833 92.125,5.8125 C91.75,6.14583 91.526,6.75521 91.4531,7.64063 L95.5,7.64063 M100.656,2.64063 L100.656,3.0625 L99.9688,3.0625 C99.6042,3.0625 99.3229,3.15625 99.125,3.34375 C98.8854,3.57292 98.7656,3.94271 98.7656,4.45313 L98.7656,4.98438 L100.391,4.98438 L100.391,5.40625 L98.7656,5.40625 L98.7656,11 L98.2656,11 L98.2656,5.40625 L97.3281,5.40625 L97.3281,4.98438 L98.2656,4.98438 L98.2656,4.5625 C98.2656,3.89583 98.4219,3.41146 98.7344,3.10938 C99.0365,2.79688 99.4479,2.64063 99.9688,2.64063 L100.656,2.64063 M102.25,3.28125 L102.25,4.98438 L104.281,4.98438 L104.281,5.40625 L102.25,5.40625 L102.25,9.01563 C102.25,9.47396 102.307,9.79688 102.422,9.98438 C102.672,10.3802 103.031,10.5781 103.5,10.5781 L104.281,10.5781 L104.281,11 L103.516,11 C103.026,11 102.609,10.8568 102.266,10.5703 C101.922,10.2839 101.75,9.76563 101.75,9.01563 L101.75,5.40625 L101.031,5.40625 L101.031,4.98438 L101.75,4.98438 L101.75,3.28125 L102.25,3.28125"/>
</g>

<g fill="none" stroke="#000000" stroke-opacity="1" stroke-width="1" stroke-linecap="square" stroke-linejoin="bevel" transform="matrix(2,0,0,2,446.762,85)"
font-family="sans" font-size="11" font-weight="100" font-style="normal" 
>
</g>

<g fill="none" stroke="#000000" stroke-opacity="1" stroke-width="1" stroke-linecap="square" stroke-linejoin="bevel" transform="matrix(2,0,0,2,446.762,85)"
font-family="Ubuntu" font-size="11" font-weight="400" font-style="normal" 
>
</g>

<g fill="none" stroke="#000000" stroke-opacity="1" stroke-width="1" stroke-linecap="square" stroke-linejoin="bevel" transform="matrix(2,0,0,2,-0.0008,167)"
font-family="Ubuntu" font-size="11" font-weight="400" font-style="normal" 
>
</g>

<g fill="none" stroke="#000000" stroke-opacity="1" stroke-width="1" stroke-linecap="square" stroke-linejoin="bevel" transform="matrix(2,0,0,2,-0.0008,167)"
font-family="Ubuntu" font-size="11" font-weight="400" font-style="normal" 
>
</g>

<g fill="none" stroke="#000000" stroke-opacity="1" stroke-width="1" stroke-linecap="square" stroke-linejoin="bevel" transform="matrix(2,0,0,2,-0.0008,167)"
font-family="Ubuntu" font-size="11" font-weight="400" font-style="normal" 
>
</g>

<g fill="none" stroke="#000000" stroke-opacity="1" stroke-width="1" stroke-linecap="square" stroke-linejoin="round" transform="matrix(2,0,0,2,-0.0008,167)"
font-family="Ubuntu" font-size="11" font-weight="400" font-style="normal" 
>
<rect x="199.78" y="-51.5" width="152" height="35"/>
</g>

<g fill="none" stroke="#000000" stroke-opacity="1" stroke-width="1" stroke-linecap="square" stroke-linejoin="bevel" transform="matrix(2,0,0,2,-0.0008,167)"
font-family="Ubuntu" font-size="11" font-weight="400" font-style="normal" 
>
</g>

<g fill="none" stroke="#000000" stroke-opacity="1" stroke-width="1" stroke-linecap="square" stroke-linejoin="bevel" transform="matrix(2,0,0,2,446.762,85)"
font-family="Ubuntu" font-size="11" font-weight="400" font-style="normal" 
>
</g>

<g fill="none" stroke="#000000" stroke-opacity="1" stroke-width="1" stroke-linecap="square" stroke-linejoin="bevel" transform="matrix(2,0,0,2,446.762,85)"
font-family="sans" font-size="11" font-weight="100" font-style="normal" 
>
</g>

<g fill="#000000" fill-opacity="1" stroke="#000000" stroke-opacity="1" stroke-width="1" stroke-linecap="square" stroke-linejoin="round" transform="matrix(2,0,0,2,446.762,85)"
font-family="sans" font-size="11" font-weight="100" font-style="normal" 
>
<path vector-effect="none" fill-rule="nonzero" d="M2.96875,2.98438 L3.53125,2.98438 L0.734375,12.0156 L0.171875,12.0156 L2.96875,2.98438 M9.28125,6.29688 C9.46875,5.80729 9.76042,5.44271 10.1563,5.20313 C10.5417,4.96354 10.9948,4.84375 11.5156,4.84375 C12.0365,4.84375 12.4531,5.02604 12.7656,5.39063 C13.0885,5.75521 13.25,6.41667 13.25,7.375 L13.25,11 L12.7656,11 L12.7656,7.40625 C12.7656,6.57292 12.651,6.01042 12.4219,5.71875 C12.1927,5.42708 11.8854,5.28125 11.5,5.28125 C10.9479,5.28125 10.4635,5.44792 10.0469,5.78125 C9.57813,6.15625 9.34375,6.76042 9.34375,7.59375 L9.34375,11 L8.85938,11 L8.85938,7.40625 C8.85938,6.60417 8.7474,6.04948 8.52344,5.74219 C8.29948,5.4349 7.98958,5.28125 7.59375,5.28125 C7.04167,5.28125 6.55729,5.45313 6.14063,5.79688 C5.67188,6.16146 5.4375,6.76042 5.4375,7.59375 L5.4375,11 L4.95313,11 L4.95313,4.98438 L5.4375,4.98438 L5.4375,6.10938 C5.61458,5.71354 5.89063,5.40104 6.26563,5.17188 C6.63021,4.95313 7.08333,4.84375 7.625,4.84375 C7.97917,4.84375 8.31771,4.95833 8.64063,5.1875 C8.89063,5.375 9.10417,5.74479 9.28125,6.29688 M15.6406,4.98438 L16.1406,4.98438 L16.1406,11 L15.6406,11 L15.6406,4.98438 M15.6406,2.64063 L16.1406,2.64063 L16.1406,3.3125 L15.6406,3.3125 L15.6406,2.64063 M21.9688,5.40625 C21.8854,5.36458 21.776,5.33333 21.6406,5.3125 C21.5156,5.29167 21.3646,5.28125 21.1875,5.28125 C20.5729,5.28125 20.0677,5.50521 19.6719,5.95313 C19.349,6.31771 19.1875,6.94271 19.1875,7.82813 L19.1875,11 L18.7031,11 L18.7031,4.98438 L19.1875,4.98438 L19.1875,6.10938 C19.3542,5.78646 19.5833,5.51563 19.875,5.29688 C20.2708,4.99479 20.7396,4.84375 21.2813,4.84375 C21.4271,4.84375 21.5521,4.84896 21.6563,4.85938 C21.7604,4.85938 21.8646,4.86979 21.9688,4.89063 L21.9688,5.40625 M23.7344,3.28125 L23.7344,4.98438 L25.7656,4.98438 L25.7656,5.40625 L23.7344,5.40625 L23.7344,9.01563 C23.7344,9.47396 23.7917,9.79688 23.9063,9.98438 C24.1563,10.3802 24.5156,10.5781 24.9844,10.5781 L25.7656,10.5781 L25.7656,11 L25,11 C24.5104,11 24.0938,10.8568 23.75,10.5703 C23.4063,10.2839 23.2344,9.76563 23.2344,9.01563 L23.2344,5.40625 L22.5156,5.40625 L22.5156,4.98438 L23.2344,4.98438 L23.2344,3.28125 L23.7344,3.28125 M32.2188,7.75 L32.2188,8.0625 L27.6563,8.0625 C27.6563,9.02083 27.8438,9.69792 28.2188,10.0938 C28.6354,10.5208 29.25,10.7344 30.0625,10.7344 C30.2813,10.7344 30.5677,10.6875 30.9219,10.5938 C31.276,10.5 31.6302,10.3594 31.9844,10.1719 L31.9844,10.6875 C31.6302,10.8438 31.2682,10.9609 30.8984,11.0391 C30.5286,11.1172 30.2344,11.1563 30.0156,11.1563 C29.0885,11.1563 28.3906,10.9063 27.9219,10.4063 C27.4115,9.875 27.1563,9.09375 27.1563,8.0625 C27.1563,6.98958 27.3854,6.1875 27.8438,5.65625 C28.3229,5.11458 28.9896,4.84375 29.8438,4.84375 C30.625,4.84375 31.2188,5.10417 31.625,5.625 C32.0208,6.16667 32.2188,6.875 32.2188,7.75 M31.7188,7.64063 C31.7188,6.79688 31.526,6.18229 31.1406,5.79688 C30.8281,5.45313 30.3958,5.28125 29.8438,5.28125 C29.25,5.28125 28.75,5.45833 28.3438,5.8125 C27.9688,6.14583 27.7448,6.75521 27.6719,7.64063 L31.7188,7.64063 M36.0156,2.98438 L36.5781,2.98438 L33.7813,12.0156 L33.2188,12.0156 L36.0156,2.98438 M42,6.35938 L42,2.64063 L42.4688,2.64063 L42.4688,11 L42,11 L42,9.64063 C41.7708,10.1615 41.5208,10.5156 41.25,10.7031 C40.8542,11.0052 40.474,11.1563 40.1094,11.1563 C39.401,11.1563 38.8099,10.8672 38.3359,10.2891 C37.862,9.71094 37.625,8.94792 37.625,8 C37.625,7.05208 37.862,6.28906 38.3359,5.71094 C38.8099,5.13281 39.401,4.84375 40.1094,4.84375 C40.474,4.84375 40.8542,4.98958 41.25,5.28125 C41.5208,5.47917 41.7708,5.83854 42,6.35938 M38.7656,5.90625 C38.349,6.32292 38.1406,7.02083 38.1406,8 C38.1406,8.97917 38.349,9.67708 38.7656,10.0938 C39.1823,10.5104 39.6198,10.7188 40.0781,10.7188 C40.526,10.7188 40.9583,10.5104 41.375,10.0938 C41.7813,9.67708 41.9844,8.97917 41.9844,8 C41.9844,7.02083 41.7813,6.32292 41.375,5.90625 C40.9583,5.48958 40.526,5.28125 40.0781,5.28125 C39.6198,5.28125 39.1823,5.48958 38.7656,5.90625 M44.9531,4.98438 L45.4531,4.98438 L45.4531,11 L44.9531,11 L44.9531,4.98438 M44.9531,2.64063 L45.4531,2.64063 L45.4531,3.3125 L44.9531,3.3125 L44.9531,2.64063 M51.4219,5.15625 L51.4219,5.70313 C51.0677,5.50521 50.849,5.39583 50.7656,5.375 C50.5156,5.32292 50.2031,5.29167 49.8281,5.28125 C49.2656,5.28125 48.8229,5.39063 48.5,5.60938 C48.25,5.79688 48.125,6.11458 48.125,6.5625 C48.125,6.875 48.2448,7.11458 48.4844,7.28125 C48.724,7.46875 49.0729,7.61458 49.5313,7.71875 L49.875,7.78125 C50.4479,7.90625 50.8802,8.08333 51.1719,8.3125 C51.5156,8.58333 51.6927,8.92708 51.7031,9.34375 C51.7031,9.90625 51.5365,10.349 51.2031,10.6719 C50.849,10.9948 50.2708,11.1563 49.4688,11.1563 C49.0313,11.1563 48.6979,11.125 48.4688,11.0625 C48.1875,10.9896 47.8958,10.8958 47.5938,10.7813 L47.5938,10.1563 C48.0313,10.4063 48.3125,10.5521 48.4375,10.5938 C48.7917,10.6875 49.1458,10.7344 49.5,10.7344 C50.0729,10.7344 50.5,10.6146 50.7813,10.375 C51.0625,10.125 51.2031,9.80729 51.2031,9.42188 C51.2031,9.08854 51.1094,8.84896 50.9219,8.70313 C50.651,8.48438 50.224,8.30729 49.6406,8.17188 L49.2969,8.09375 C48.7865,7.96875 48.401,7.80208 48.1406,7.59375 C47.8073,7.32292 47.6406,6.99479 47.6406,6.60938 C47.6406,5.98438 47.8411,5.53385 48.2422,5.25781 C48.6432,4.98177 49.1354,4.84375 49.7188,4.84375 C50.2188,4.84375 50.5625,4.86979 50.75,4.92188 C50.9792,4.98438 51.2031,5.0625 51.4219,5.15625 M54.25,3.28125 L54.25,4.98438 L56.2813,4.98438 L56.2813,5.40625 L54.25,5.40625 L54.25,9.01563 C54.25,9.47396 54.3073,9.79688 54.4219,9.98438 C54.6719,10.3802 55.0313,10.5781 55.5,10.5781 L56.2813,10.5781 L56.2813,11 L55.5156,11 C55.026,11 54.6094,10.8568 54.2656,10.5703 C53.9219,10.2839 53.75,9.76563 53.75,9.01563 L53.75,5.40625 L53.0313,5.40625 L53.0313,4.98438 L53.75,4.98438 L53.75,3.28125 L54.25,3.28125 M60.4531,7.60938 C59.651,7.60938 59.0755,7.75 58.7266,8.03125 C58.3776,8.3125 58.2031,8.72396 58.2031,9.26563 C58.2031,9.79688 58.349,10.1745 58.6406,10.3984 C58.9323,10.6224 59.276,10.7344 59.6719,10.7344 C60.4219,10.7344 60.9635,10.4167 61.2969,9.78125 C61.6302,9.13542 61.7969,8.53125 61.7969,7.96875 L61.7969,7.60938 L60.4531,7.60938 M62.2969,7.5625 L62.2969,11 L61.7969,11 L61.7969,9.35938 C61.526,10.1615 61.1615,10.6719 60.7031,10.8906 C60.349,11.0677 59.9896,11.1563 59.625,11.1563 C59.0313,11.1563 58.5625,10.9948 58.2188,10.6719 C57.875,10.349 57.7031,9.8776 57.7031,9.25781 C57.7031,8.63802 57.9271,8.14063 58.375,7.76563 C58.8229,7.39063 59.5521,7.20313 60.5625,7.20313 L61.7969,7.20313 L61.7969,7.10938 C61.7969,6.57813 61.6406,6.14063 61.3281,5.79688 C61.0365,5.45313 60.5417,5.28125 59.8438,5.28125 C59.5,5.28125 59.151,5.34375 58.7969,5.46875 C58.5677,5.55208 58.2656,5.71875 57.8906,5.96875 L57.8906,5.4375 C58.2135,5.23958 58.5156,5.09896 58.7969,5.01563 C59.1927,4.90104 59.5729,4.84375 59.9375,4.84375 C60.6563,4.84375 61.2448,5.05729 61.7031,5.48438 C62.099,5.84896 62.2969,6.54167 62.2969,7.5625 M69.3281,7.375 L69.3281,11 L68.8281,11 L68.8281,7.40625 C68.8281,6.625 68.7031,6.07552 68.4531,5.75781 C68.2031,5.4401 67.8333,5.28125 67.3438,5.28125 C66.7708,5.28125 66.2865,5.45313 65.8906,5.79688 C65.474,6.14063 65.2656,6.73958 65.2656,7.59375 L65.2656,11 L64.7813,11 L64.7813,4.98438 L65.2656,4.98438 L65.2656,6.10938 C65.4427,5.74479 65.6771,5.46875 65.9688,5.28125 C66.3854,4.98958 66.849,4.84375 67.3594,4.84375 C67.9635,4.84375 68.4427,5.04688 68.7969,5.45313 C69.151,5.84896 69.3281,6.48958 69.3281,7.375 M75.8594,5.28125 L75.8594,5.79688 C75.5677,5.61979 75.3229,5.5 75.125,5.4375 C74.7917,5.33333 74.474,5.28125 74.1719,5.28125 C73.3073,5.28125 72.6875,5.5026 72.3125,5.94531 C71.9375,6.38802 71.75,7.07292 71.75,8 C71.75,8.9375 71.9375,9.6276 72.3125,10.0703 C72.6875,10.513 73.3073,10.7344 74.1719,10.7344 C74.4635,10.7344 74.7448,10.6927 75.0156,10.6094 C75.3073,10.5365 75.5885,10.4219 75.8594,10.2656 L75.8594,10.7656 C75.5885,10.901 75.3073,11 75.0156,11.0625 C74.7135,11.125 74.4167,11.1563 74.125,11.1563 C73.25,11.1563 72.5521,10.9167 72.0313,10.4375 C71.5104,9.95833 71.25,9.14323 71.25,7.99219 C71.25,6.84115 71.5104,6.02604 72.0313,5.54688 C72.5521,5.07813 73.25,4.84375 74.125,4.84375 C74.4167,4.84375 74.724,4.88542 75.0469,4.96875 C75.3698,5.04167 75.6406,5.14583 75.8594,5.28125 M82.4844,7.75 L82.4844,8.0625 L77.9219,8.0625 C77.9219,9.02083 78.1094,9.69792 78.4844,10.0938 C78.901,10.5208 79.5156,10.7344 80.3281,10.7344 C80.5469,10.7344 80.8333,10.6875 81.1875,10.5938 C81.5417,10.5 81.8958,10.3594 82.25,10.1719 L82.25,10.6875 C81.8958,10.8438 81.5339,10.9609 81.1641,11.0391 C80.7943,11.1172 80.5,11.1563 80.2813,11.1563 C79.3542,11.1563 78.6563,10.9063 78.1875,10.4063 C77.6771,9.875 77.4219,9.09375 77.4219,8.0625 C77.4219,6.98958 77.651,6.1875 78.1094,5.65625 C78.5885,5.11458 79.2552,4.84375 80.1094,4.84375 C80.8906,4.84375 81.4844,5.10417 81.8906,5.625 C82.2865,6.16667 82.4844,6.875 82.4844,7.75 M81.9844,7.64063 C81.9844,6.79688 81.7917,6.18229 81.4063,5.79688 C81.0938,5.45313 80.6615,5.28125 80.1094,5.28125 C79.5156,5.28125 79.0156,5.45833 78.6094,5.8125 C78.2344,6.14583 78.0104,6.75521 77.9375,7.64063 L81.9844,7.64063 M86.2813,2.98438 L86.8438,2.98438 L84.0469,12.0156 L83.4844,12.0156 L86.2813,2.98438 M88.2656,2.64063 L88.75,2.64063 L88.75,11 L88.2656,11 L88.2656,2.64063 M96,7.75 L96,8.0625 L91.4375,8.0625 C91.4375,9.02083 91.625,9.69792 92,10.0938 C92.4167,10.5208 93.0313,10.7344 93.8438,10.7344 C94.0625,10.7344 94.349,10.6875 94.7031,10.5938 C95.0573,10.5 95.4115,10.3594 95.7656,10.1719 L95.7656,10.6875 C95.4115,10.8438 95.0495,10.9609 94.6797,11.0391 C94.3099,11.1172 94.0156,11.1563 93.7969,11.1563 C92.8698,11.1563 92.1719,10.9063 91.7031,10.4063 C91.1927,9.875 90.9375,9.09375 90.9375,8.0625 C90.9375,6.98958 91.1667,6.1875 91.625,5.65625 C92.1042,5.11458 92.7708,4.84375 93.625,4.84375 C94.4063,4.84375 95,5.10417 95.4063,5.625 C95.8021,6.16667 96,6.875 96,7.75 M95.5,7.64063 C95.5,6.79688 95.3073,6.18229 94.9219,5.79688 C94.6094,5.45313 94.1771,5.28125 93.625,5.28125 C93.0313,5.28125 92.5313,5.45833 92.125,5.8125 C91.75,6.14583 91.526,6.75521 91.4531,7.64063 L95.5,7.64063 M100.656,2.64063 L100.656,3.0625 L99.9688,3.0625 C99.6042,3.0625 99.3229,3.15625 99.125,3.34375 C98.8854,3.57292 98.7656,3.94271 98.7656,4.45313 L98.7656,4.98438 L100.391,4.98438 L100.391,5.40625 L98.7656,5.40625 L98.7656,11 L98.2656,11 L98.2656,5.40625 L97.3281,5.40625 L97.3281,4.98438 L98.2656,4.98438 L98.2656,4.5625 C98.2656,3.89583 98.4219,3.41146 98.7344,3.10938 C99.0365,2.79688 99.4479,2.64063 99.9688,2.64063 L100.656,2.64063 M102.25,3.28125 L102.25,4.98438 L104.281,4.98438 L104.281,5.40625 L102.25,5.40625 L102.25,9.01563 C102.25,9.47396 102.307,9.79688 102.422,9.98438 C102.672,10.3802 103.031,10.5781 103.5,10.5781 L104.281,10.5781 L104.281,11 L103.516,11 C103.026,11 102.609,10.8568 102.266,10.5703 C101.922,10.2839 101.75,9.76563 101.75,9.01563 L101.75,5.40625 L101.031,5.40625 L101.031,4.98438 L101.75,4.98438 L101.75,3.28125 L102.25,3.28125"/>
</g>

<g fill="none" stroke="#000000" stroke-opacity="1" stroke-width="1" stroke-linecap="square" stroke-linejoin="bevel" transform="matrix(2,0,0,2,446.762,85)"
font-family="sans" font-size="11" font-weight="100" font-style="normal" 
>
</g>

<g fill="none" stroke="#000000" stroke-opacity="1" stroke-width="1" stroke-linecap="square" stroke-linejoin="bevel" transform="matrix(2,0,0,2,446.762,85)"
font-family="Ubuntu" font-size="11" font-weight="400" font-style="normal" 
>
</g>

<g fill="none" stroke="#000000" stroke-opacity="1" stroke-width="1" stroke-linecap="square" stroke-linejoin="bevel" transform="matrix(2,0,0,2,-0.0008,167)"
font-family="Ubuntu" font-size="11" font-weight="400" font-style="normal" 
>
</g>

<g fill="none" stroke="#000000" stroke-opacity="1" stroke-width="1" stroke-linecap="square" stroke-linejoin="bevel" transform="matrix(2,0,0,2,-0.0008,167)"
font-family="Ubuntu" font-size="11" font-weight="400" font-style="normal" 
>
</g>

<g fill="none" stroke="#000000" stroke-opacity="1" stroke-width="1" stroke-linecap="square" stroke-linejoin="bevel" transform="matrix(2,0,0,2,-0.0008,167)"
font-family="Ubuntu" font-size="11" font-weight="400" font-style="normal" 
>
</g>

<g fill="none" stroke="#000000" stroke-opacity="1" stroke-width="1" stroke-linecap="square" stroke-linejoin="round" transform="matrix(2,0,0,2,-0.0008,167)"
font-family="Ubuntu" font-size="11" font-weight="400" font-style="normal" 
>
<ellipse cx="91.642" cy="-34" rx="91.1416" ry="17.5"/>
</g>

<g fill="none" stroke="#000000" stroke-opacity="1" stroke-width="1" stroke-linecap="square" stroke-linejoin="bevel" transform="matrix(2,0,0,2,-0.0008,167)"
font-family="Ubuntu" font-size="11" font-weight="400" font-style="normal" 
>
</g>

<g fill="none" stroke="#000000" stroke-opacity="1" stroke-width="1" stroke-linecap="square" stroke-linejoin="bevel" transform="matrix(2,0,0,2,88.0019,85)"
font-family="Ubuntu" font-size="11" font-weight="400" font-style="normal" 
>
</g>

<g fill="none" stroke="#000000" stroke-opacity="1" stroke-width="1" stroke-linecap="square" stroke-linejoin="bevel" transform="matrix(2,0,0,2,88.0019,85)"
font-family="sans" font-size="11" font-weight="100" font-style="normal" 
>
</g>

<g fill="#000000" fill-opacity="1" stroke="#000000" stroke-opacity="1" stroke-width="1" stroke-linecap="square" stroke-linejoin="round" transform="matrix(2,0,0,2,88.0019,85)"
font-family="sans" font-size="11" font-weight="100" font-style="normal" 
>
<path vector-effect="none" fill-rule="nonzero" d="M2.96875,2.98438 L3.53125,2.98438 L0.734375,12.0156 L0.171875,12.0156 L2.96875,2.98438 M9.28125,6.29688 C9.46875,5.80729 9.76042,5.44271 10.1563,5.20313 C10.5417,4.96354 10.9948,4.84375 11.5156,4.84375 C12.0365,4.84375 12.4531,5.02604 12.7656,5.39063 C13.0885,5.75521 13.25,6.41667 13.25,7.375 L13.25,11 L12.7656,11 L12.7656,7.40625 C12.7656,6.57292 12.651,6.01042 12.4219,5.71875 C12.1927,5.42708 11.8854,5.28125 11.5,5.28125 C10.9479,5.28125 10.4635,5.44792 10.0469,5.78125 C9.57813,6.15625 9.34375,6.76042 9.34375,7.59375 L9.34375,11 L8.85938,11 L8.85938,7.40625 C8.85938,6.60417 8.7474,6.04948 8.52344,5.74219 C8.29948,5.4349 7.98958,5.28125 7.59375,5.28125 C7.04167,5.28125 6.55729,5.45313 6.14063,5.79688 C5.67188,6.16146 5.4375,6.76042 5.4375,7.59375 L5.4375,11 L4.95313,11 L4.95313,4.98438 L5.4375,4.98438 L5.4375,6.10938 C5.61458,5.71354 5.89063,5.40104 6.26563,5.17188 C6.63021,4.95313 7.08333,4.84375 7.625,4.84375 C7.97917,4.84375 8.31771,4.95833 8.64063,5.1875 C8.89063,5.375 9.10417,5.74479 9.28125,6.29688 M15.6406,4.98438 L16.1406,4.98438 L16.1406,11 L15.6406,11 L15.6406,4.98438 M15.6406,2.64063 L16.1406,2.64063 L16.1406,3.3125 L15.6406,3.3125 L15.6406,2.64063 M21.9688,5.40625 C21.8854,5.36458 21.776,5.33333 21.6406,5.3125 C21.5156,5.29167 21.3646,5.28125 21.1875,5.28125 C20.5729,5.28125 20.0677,5.50521 19.6719,5.95313 C19.349,6.31771 19.1875,6.94271 19.1875,7.82813 L19.1875,11 L18.7031,11 L18.7031,4.98438 L19.1875,4.98438 L19.1875,6.10938 C19.3542,5.78646 19.5833,5.51563 19.875,5.29688 C20.2708,4.99479 20.7396,4.84375 21.2813,4.84375 C21.4271,4.84375 21.5521,4.84896 21.6563,4.85938 C21.7604,4.85938 21.8646,4.86979 21.9688,4.89063 L21.9688,5.40625 M23.7344,3.28125 L23.7344,4.98438 L25.7656,4.98438 L25.7656,5.40625 L23.7344,5.40625 L23.7344,9.01563 C23.7344,9.47396 23.7917,9.79688 23.9063,9.98438 C24.1563,10.3802 24.5156,10.5781 24.9844,10.5781 L25.7656,10.5781 L25.7656,11 L25,11 C24.5104,11 24.0938,10.8568 23.75,10.5703 C23.4063,10.2839 23.2344,9.76563 23.2344,9.01563 L23.2344,5.40625 L22.5156,5.40625 L22.5156,4.98438 L23.2344,4.98438 L23.2344,3.28125 L23.7344,3.28125 M32.2188,7.75 L32.2188,8.0625 L27.6563,8.0625 C27.6563,9.02083 27.8438,9.69792 28.2188,10.0938 C28.6354,10.5208 29.25,10.7344 30.0625,10.7344 C30.2813,10.7344 30.5677,10.6875 30.9219,10.5938 C31.276,10.5 31.6302,10.3594 31.9844,10.1719 L31.9844,10.6875 C31.6302,10.8438 31.2682,10.9609 30.8984,11.0391 C30.5286,11.1172 30.2344,11.1563 30.0156,11.1563 C29.0885,11.1563 28.3906,10.9063 27.9219,10.4063 C27.4115,9.875 27.1563,9.09375 27.1563,8.0625 C27.1563,6.98958 27.3854,6.1875 27.8438,5.65625 C28.3229,5.11458 28.9896,4.84375 29.8438,4.84375 C30.625,4.84375 31.2188,5.10417 31.625,5.625 C32.0208,6.16667 32.2188,6.875 32.2188,7.75 M31.7188,7.64063 C31.7188,6.79688 31.526,6.18229 31.1406,5.79688 C30.8281,5.45313 30.3958,5.28125 29.8438,5.28125 C29.25,5.28125 28.75,5.45833 28.3438,5.8125 C27.9688,6.14583 27.7448,6.75521 27.6719,7.64063 L31.7188,7.64063 M38.6563,13.1719 L38.6563,13.5938 L32.9375,13.5938 L32.9375,13.1719 L38.6563,13.1719 M40.3125,3.28125 L40.3125,4.98438 L42.3438,4.98438 L42.3438,5.40625 L40.3125,5.40625 L40.3125,9.01563 C40.3125,9.47396 40.3698,9.79688 40.4844,9.98438 C40.7344,10.3802 41.0938,10.5781 41.5625,10.5781 L42.3438,10.5781 L42.3438,11 L41.5781,11 C41.0885,11 40.6719,10.8568 40.3281,10.5703 C39.9844,10.2839 39.8125,9.76563 39.8125,9.01563 L39.8125,5.40625 L39.0938,5.40625 L39.0938,4.98438 L39.8125,4.98438 L39.8125,3.28125 L40.3125,3.28125 M48.7969,7.75 L48.7969,8.0625 L44.2344,8.0625 C44.2344,9.02083 44.4219,9.69792 44.7969,10.0938 C45.2135,10.5208 45.8281,10.7344 46.6406,10.7344 C46.8594,10.7344 47.1458,10.6875 47.5,10.5938 C47.8542,10.5 48.2083,10.3594 48.5625,10.1719 L48.5625,10.6875 C48.2083,10.8438 47.8464,10.9609 47.4766,11.0391 C47.1068,11.1172 46.8125,11.1563 46.5938,11.1563 C45.6667,11.1563 44.9688,10.9063 44.5,10.4063 C43.9896,9.875 43.7344,9.09375 43.7344,8.0625 C43.7344,6.98958 43.9635,6.1875 44.4219,5.65625 C44.901,5.11458 45.5677,4.84375 46.4219,4.84375 C47.2031,4.84375 47.7969,5.10417 48.2031,5.625 C48.599,6.16667 48.7969,6.875 48.7969,7.75 M48.2969,7.64063 C48.2969,6.79688 48.1042,6.18229 47.7188,5.79688 C47.4063,5.45313 46.974,5.28125 46.4219,5.28125 C45.8281,5.28125 45.3281,5.45833 44.9219,5.8125 C44.5469,6.14583 44.3229,6.75521 44.25,7.64063 L48.2969,7.64063 M50.875,2.64063 L51.3594,2.64063 L51.3594,11 L50.875,11 L50.875,2.64063 M58.6094,7.75 L58.6094,8.0625 L54.0469,8.0625 C54.0469,9.02083 54.2344,9.69792 54.6094,10.0938 C55.026,10.5208 55.6406,10.7344 56.4531,10.7344 C56.6719,10.7344 56.9583,10.6875 57.3125,10.5938 C57.6667,10.5 58.0208,10.3594 58.375,10.1719 L58.375,10.6875 C58.0208,10.8438 57.6589,10.9609 57.2891,11.0391 C56.9193,11.1172 56.625,11.1563 56.4063,11.1563 C55.4792,11.1563 54.7813,10.9063 54.3125,10.4063 C53.8021,9.875 53.5469,9.09375 53.5469,8.0625 C53.5469,6.98958 53.776,6.1875 54.2344,5.65625 C54.7135,5.11458 55.3802,4.84375 56.2344,4.84375 C57.0156,4.84375 57.6094,5.10417 58.0156,5.625 C58.4115,6.16667 58.6094,6.875 58.6094,7.75 M58.1094,7.64063 C58.1094,6.79688 57.9167,6.18229 57.5313,5.79688 C57.2188,5.45313 56.7865,5.28125 56.2344,5.28125 C55.6406,5.28125 55.1406,5.45833 54.7344,5.8125 C54.3594,6.14583 54.1354,6.75521 54.0625,7.64063 L58.1094,7.64063 M65.0156,6.29688 C65.2031,5.80729 65.4948,5.44271 65.8906,5.20313 C66.276,4.96354 66.7292,4.84375 67.25,4.84375 C67.7708,4.84375 68.1875,5.02604 68.5,5.39063 C68.8229,5.75521 68.9844,6.41667 68.9844,7.375 L68.9844,11 L68.5,11 L68.5,7.40625 C68.5,6.57292 68.3854,6.01042 68.1563,5.71875 C67.9271,5.42708 67.6198,5.28125 67.2344,5.28125 C66.6823,5.28125 66.1979,5.44792 65.7813,5.78125 C65.3125,6.15625 65.0781,6.76042 65.0781,7.59375 L65.0781,11 L64.5938,11 L64.5938,7.40625 C64.5938,6.60417 64.4818,6.04948 64.2578,5.74219 C64.0339,5.4349 63.724,5.28125 63.3281,5.28125 C62.776,5.28125 62.2917,5.45313 61.875,5.79688 C61.4063,6.16146 61.1719,6.76042 61.1719,7.59375 L61.1719,11 L60.6875,11 L60.6875,4.98438 L61.1719,4.98438 L61.1719,6.10938 C61.349,5.71354 61.625,5.40104 62,5.17188 C62.3646,4.95313 62.8177,4.84375 63.3594,4.84375 C63.7135,4.84375 64.0521,4.95833 64.375,5.1875 C64.625,5.375 64.8385,5.74479 65.0156,6.29688 M76.0781,7.75 L76.0781,8.0625 L71.5156,8.0625 C71.5156,9.02083 71.7031,9.69792 72.0781,10.0938 C72.4948,10.5208 73.1094,10.7344 73.9219,10.7344 C74.1406,10.7344 74.4271,10.6875 74.7813,10.5938 C75.1354,10.5 75.4896,10.3594 75.8438,10.1719 L75.8438,10.6875 C75.4896,10.8438 75.1276,10.9609 74.7578,11.0391 C74.388,11.1172 74.0938,11.1563 73.875,11.1563 C72.9479,11.1563 72.25,10.9063 71.7813,10.4063 C71.2708,9.875 71.0156,9.09375 71.0156,8.0625 C71.0156,6.98958 71.2448,6.1875 71.7031,5.65625 C72.1823,5.11458 72.849,4.84375 73.7031,4.84375 C74.4844,4.84375 75.0781,5.10417 75.4844,5.625 C75.8802,6.16667 76.0781,6.875 76.0781,7.75 M75.5781,7.64063 C75.5781,6.79688 75.3854,6.18229 75,5.79688 C74.6875,5.45313 74.2552,5.28125 73.7031,5.28125 C73.1094,5.28125 72.6094,5.45833 72.2031,5.8125 C71.8281,6.14583 71.6042,6.75521 71.5313,7.64063 L75.5781,7.64063 M78.6719,3.28125 L78.6719,4.98438 L80.7031,4.98438 L80.7031,5.40625 L78.6719,5.40625 L78.6719,9.01563 C78.6719,9.47396 78.7292,9.79688 78.8438,9.98438 C79.0938,10.3802 79.4531,10.5781 79.9219,10.5781 L80.7031,10.5781 L80.7031,11 L79.9375,11 C79.4479,11 79.0313,10.8568 78.6875,10.5703 C78.3438,10.2839 78.1719,9.76563 78.1719,9.01563 L78.1719,5.40625 L77.4531,5.40625 L77.4531,4.98438 L78.1719,4.98438 L78.1719,3.28125 L78.6719,3.28125 M85.7344,5.40625 C85.651,5.36458 85.5417,5.33333 85.4063,5.3125 C85.2813,5.29167 85.1302,5.28125 84.9531,5.28125 C84.3385,5.28125 83.8333,5.50521 83.4375,5.95313 C83.1146,6.31771 82.9531,6.94271 82.9531,7.82813 L82.9531,11 L82.4688,11 L82.4688,4.98438 L82.9531,4.98438 L82.9531,6.10938 C83.1198,5.78646 83.349,5.51563 83.6406,5.29688 C84.0365,4.99479 84.5052,4.84375 85.0469,4.84375 C85.1927,4.84375 85.3177,4.84896 85.4219,4.85938 C85.526,4.85938 85.6302,4.86979 85.7344,4.89063 L85.7344,5.40625 M86.9688,4.98438 L87.4688,4.98438 L87.4688,11 L86.9688,11 L86.9688,4.98438 M86.9688,2.64063 L87.4688,2.64063 L87.4688,3.3125 L86.9688,3.3125 L86.9688,2.64063 M94.5156,4.98438 L92.3438,7.875 L94.6719,11 L94.0938,11 L92.0469,8.26563 L89.9844,11 L89.3906,11 L91.75,7.85938 L89.6094,4.98438 L90.1875,4.98438 L92.0469,7.48438 L93.9219,4.98438 L94.5156,4.98438"/>
</g>

<g fill="none" stroke="#000000" stroke-opacity="1" stroke-width="1" stroke-linecap="square" stroke-linejoin="bevel" transform="matrix(2,0,0,2,88.0019,85)"
font-family="sans" font-size="11" font-weight="100" font-style="normal" 
>
</g>

<g fill="none" stroke="#000000" stroke-opacity="1" stroke-width="1" stroke-linecap="square" stroke-linejoin="bevel" transform="matrix(2,0,0,2,88.0019,85)"
font-family="Ubuntu" font-size="11" font-weight="400" font-style="normal" 
>
</g>

<g fill="none" stroke="#000000" stroke-opacity="1" stroke-width="1" stroke-linecap="square" stroke-linejoin="bevel" transform="matrix(2,0,0,2,-0.0008,167)"
font-family="Ubuntu" font-size="11" font-weight="400" font-style="normal" 
>
</g>

<g fill="none" stroke="#000000" stroke-opacity="1" stroke-width="1" stroke-linecap="square" stroke-linejoin="bevel" transform="matrix(2,0,0,2,-0.0008,167)"
font-family="Ubuntu" font-size="11" font-weight="400" font-style="normal" 
>
</g>

<g fill="none" stroke="#000000" stroke-opacity="1" stroke-width="1" stroke-linecap="square" stroke-linejoin="bevel" transform="matrix(2,0,0,2,-0.0008,167)"
font-family="Ubuntu" font-size="11" font-weight="400" font-style="normal" 
>
</g>

<g fill="none" stroke="#000000" stroke-opacity="1" stroke-width="1" stroke-linecap="square" stroke-linejoin="round" transform="matrix(2,0,0,2,-0.0008,167)"
font-family="Ubuntu" font-size="11" font-weight="400" font-style="normal" 
>
<path vector-effect="none" fill-rule="evenodd" d="M183.45,-34 C185.25,-34 187.06,-34 188.87,-34 "/>
</g>

<g fill="none" stroke="#000000" stroke-opacity="1" stroke-width="1" stroke-linecap="square" stroke-linejoin="bevel" transform="matrix(2,0,0,2,-0.0008,167)"
font-family="Ubuntu" font-size="11" font-weight="400" font-style="normal" 
>
</g>

<g fill="none" stroke="#000000" stroke-opacity="1" stroke-width="1" stroke-linecap="square" stroke-linejoin="bevel" transform="matrix(2,0,0,2,-0.0008,167)"
font-family="Ubuntu" font-size="11" font-weight="400" font-style="normal" 
>
</g>

<g fill="#000000" fill-opacity="1" stroke="#000000" stroke-opacity="1" stroke-width="1" stroke-linecap="square" stroke-linejoin="round" transform="matrix(2,0,0,2,-0.0008,167)"
font-family="Ubuntu" font-size="11" font-weight="400" font-style="normal" 
>
<path vector-effect="none" fill-rule="evenodd" d="M188.87,-34 L188.87,-30.402 L199.15,-34 L188.87,-37.598 L188.87,-34"/>
</g>

<g fill="none" stroke="#000000" stroke-opacity="1" stroke-width="1" stroke-linecap="square" stroke-linejoin="bevel" transform="matrix(2,0,0,2,-0.0008,167)"
font-family="Ubuntu" font-size="11" font-weight="400" font-style="normal" 
>
</g>

<g fill="none" stroke="#000000" stroke-opacity="1" stroke-width="1" stroke-linecap="square" stroke-linejoin="bevel" transform="matrix(1,0,0,1,0,0)"
font-family="Ubuntu" font-size="11" font-weight="400" font-style="normal" 
>
</g>
</g>
</svg>
